<?xml version="1.0" encoding="UTF-8" standalone="no"?>
<!-- Created with Inkscape (http://www.inkscape.org/) -->

<svg
   width="512"
   height="512"
   viewBox="0 0 135.46666 135.46667"
   version="1.1"
   id="svg5"
   xml:space="preserve"
   inkscape:version="1.2.2 (732a01da63, 2022-12-09)"
   sodipodi:docname="basso_icon.svg"
   inkscape:export-filename="..\..\..\..\Projetos\app-basso-hoogerheide\android\app\src\main\res\mipmap-xxxhdpi\ic_launcher.png"
   inkscape:export-xdpi="36"
   inkscape:export-ydpi="36"
   xmlns:inkscape="http://www.inkscape.org/namespaces/inkscape"
   xmlns:sodipodi="http://sodipodi.sourceforge.net/DTD/sodipodi-0.dtd"
   xmlns="http://www.w3.org/2000/svg"
   xmlns:svg="http://www.w3.org/2000/svg"><sodipodi:namedview
     id="namedview7"
     pagecolor="#000000"
     bordercolor="#000000"
     borderopacity="0.25"
     inkscape:showpageshadow="2"
     inkscape:pageopacity="0"
     inkscape:pagecheckerboard="0"
     inkscape:deskcolor="#d1d1d1"
     inkscape:document-units="mm"
     showgrid="false"
     inkscape:zoom="1.0444209"
     inkscape:cx="405.48786"
     inkscape:cy="384.90229"
     inkscape:window-width="1920"
     inkscape:window-height="1009"
     inkscape:window-x="-8"
     inkscape:window-y="-8"
     inkscape:window-maximized="1"
     inkscape:current-layer="layer1" /><defs
     id="defs2" /><g
     inkscape:label="Camada 1"
     inkscape:groupmode="layer"
     id="layer1"><g
       id="g2657"
       transform="matrix(2.6507898,0,0,2.6507898,-208.14724,-278.95613)"><path
         id="path356"
         style="fill:#ffffff;fill-opacity:1;stroke:#ffffff;stroke-width:0.264583;stroke-opacity:1"
         d="m 89.805371,125.96854 v 2.40657 h 1.076937 L 86.5203,145.09657 c 0,0 -0.229577,3.45001 3.617867,5.08083 1.297545,0.3324 2.877384,0.41556 4.480864,-0.0181 0,0 3.593877,-1.50106 3.926375,-5.12785 L 93.85887,128.2485 h 9.11986 v 23.93963 h -5.446699 v 2.40657 h 13.046749 v -2.47014 h -5.57899 V 128.2485 h 9.37876 l -4.81314,16.65635 c 0,0 0.18966,3.64168 3.48299,5.5733 1.95786,0.51689 3.2638,0.44264 4.55993,0.0636 4.2274,-1.61497 4.02197,-5.73195 4.02197,-5.73195 l -4.21163,-16.43466 h 1.13998 v -2.40657 z m 2.588999,4.33716 3.178919,14.53559 h -6.297571 z m 23.50398,-0.15757 2.97703,14.75672 h -6.52358 z"
         sodipodi:nodetypes="ccccccccccccccccccccccccccccccccc" /><path
         style="fill:#ffffff;fill-opacity:1;stroke:#ffffff;stroke-width:0.264583;stroke-opacity:1"
         d="m 94.760554,121.98854 v 2.552 h 18.478036 v -2.59373 z"
         id="path1842"
         sodipodi:nodetypes="ccccc" /><path
         style="fill:#ffffff;fill-opacity:1;stroke:#ffffff;stroke-width:0.264583;stroke-opacity:1"
         d="m 96.962123,118.33685 v 2.62831 h 14.788147 v -2.61678 z"
         id="path1844"
         sodipodi:nodetypes="ccccc" /><path
         style="display:inline;fill:#ffffff;fill-opacity:1;stroke:#ffffff;stroke-width:0.264583;stroke-opacity:1"
         d="m 101.85864,113.92762 0.37433,-0.47637 0.98835,0.21001 -0.57728,-0.81622 3.38937,-4.85673 0.87579,0.23782 -0.4837,-0.82713 0.24726,-0.36795 4.36633,2.93328 -0.19319,0.27585 -1.02799,-0.17826 0.61803,0.75872 -1.21052,1.90864 9.82984,5.67656 -1.05399,1.57827 -9.39194,-6.22641 -1.55274,2.1375 -0.93667,-0.19733 0.50427,0.90734 -0.26483,0.43428 z"
         id="path2572"
         sodipodi:nodetypes="ccccccccccccccccccccc" /></g></g></svg>
